<?xml version="1.0" encoding="UTF-8"?>
<svg version="1.1" xmlns="http://www.w3.org/2000/svg" width="554" height="554">
<path d="M0 0 C182.82 0 365.64 0 554 0 C554 182.82 554 365.64 554 554 C371.18 554 188.36 554 0 554 C0 371.18 0 188.36 0 0 Z " fill="#FEFEFE" transform="translate(0,0)"/>
<path d="M0 0 C44.88 0 89.76 0 136 0 C136 2.64 136 5.28 136 8 C134.11732015 9.88267985 131.42937958 9.40620537 128.91015625 9.62109375 C126.7671052 9.86222227 126.7671052 9.86222227 125 12 C124.06915997 18.77796136 126.77356953 23.99838033 129.4375 30.125 C130.46123169 32.55778439 131.48049404 34.99191812 132.4921875 37.4296875 C132.7684346 38.09403809 133.0446817 38.75838867 133.32929993 39.44287109 C137.12175008 48.62861336 140.57317409 57.94606012 144.0625 67.25 C145.53316038 71.16432341 147.00479299 75.078281 148.4765625 78.9921875 C148.84851746 79.98178467 149.22047241 80.97138184 149.60369873 81.9909668 C153.67106385 92.80246685 157.80042457 103.59002116 161.9375 114.375 C162.496082 115.83166077 162.496082 115.83166077 163.06594849 117.31774902 C164.95465677 122.24298921 166.84404945 127.16796635 168.73388672 132.09277344 C172.11963209 140.91696001 175.49865997 149.74371914 178.87820435 158.57028198 C180.36844348 162.46223896 181.85901879 166.35406715 183.34959412 170.24589539 C186.42691765 178.28066987 189.50382446 186.31560371 192.58004761 194.35079956 C193.77346922 197.46795825 194.96705518 200.58505398 196.16064453 203.70214844 C197.69886865 207.71942507 199.23623151 211.73702971 200.77294922 215.75488281 C203.94704949 224.05100394 207.12600648 232.34482322 210.3515625 240.62109375 C210.83533513 241.8654596 211.31906143 243.10984345 211.80273438 244.35424805 C212.65119758 246.53321311 213.50370935 248.71060853 214.36132812 250.88598633 C214.89790039 252.26500122 214.89790039 252.26500122 215.4453125 253.671875 C215.74969238 254.4462793 216.05407227 255.22068359 216.36767578 256.01855469 C217 258 217 258 217 261 C217.66 261 218.32 261 219 261 C219.08886475 260.22100342 219.17772949 259.44200684 219.26928711 258.6394043 C220.24042042 253.8025569 221.94455864 249.37449655 223.69140625 244.76953125 C224.06824051 243.76286911 224.44507477 242.75620697 224.83332825 241.71903992 C226.07140675 238.41496771 227.31698917 235.11377683 228.5625 231.8125 C229.42782011 229.50672576 230.29255976 227.20073359 231.15673828 224.89453125 C232.91912335 220.19266863 234.68397406 215.49174325 236.45068359 210.79150391 C239.78313066 201.9205752 243.08720275 193.03915267 246.38781738 184.15634155 C247.37999316 181.48656426 248.37296737 178.81708529 249.36621094 176.14770508 C253.61057286 164.74071026 257.84833968 153.3312745 262.08425903 141.92114258 C265.54048802 132.61213122 269.00241883 123.30525457 272.46875 114 C272.86151627 112.94558212 273.25428253 111.89116425 273.65895081 110.80479431 C275.687961 105.35840654 277.7180421 99.91242085 279.74975586 94.46704102 C283.33959582 84.84310659 286.92505129 75.21776904 290.47410583 65.57870483 C291.92835127 61.62923549 293.38642429 57.68118356 294.84457397 53.7331543 C295.52230267 51.894405 296.19800007 50.05490551 296.87149048 48.21459961 C299.923455 39.87592614 302.9593964 31.78108491 307.11523438 23.91723633 C308.30461561 21.33991546 308.51361769 19.19064764 308.3125 16.375 C308.26738281 15.53710938 308.22226562 14.69921875 308.17578125 13.8359375 C308.11777344 13.23007812 308.05976563 12.62421875 308 12 C304.3321148 10.03810791 301.12751449 8.60698743 297 8 C297 5.36 297 2.72 297 0 C342.54 0 388.08 0 435 0 C435 2.64 435 5.28 435 8 C432.84500647 10.15499353 427.89987245 9.25700676 424.98046875 9.328125 C421.03092222 10.21845528 420.18220816 11.65097495 418 15 C415.89113395 26.81958139 419.22644042 40.54110593 420.75 52.3125 C421.03101067 54.53504264 421.31111074 56.7577006 421.59033203 58.98046875 C422.14213966 63.36717721 422.6977438 67.75337433 423.25683594 72.13916016 C424.1621413 79.25562157 425.02295328 86.37696704 425.875 93.5 C427.10523453 103.71500231 428.3604324 113.92679729 429.62627792 124.13744926 C430.41854194 130.52900616 431.20942621 136.92073385 432 143.3125 C432.13293835 144.38696066 432.13293835 144.38696066 432.26856232 145.48312759 C434.35781785 162.37422694 436.42445858 179.26543042 438.25 196.1875 C439.45661071 207.37173025 440.83261688 218.52053198 442.36035156 229.66577148 C444.03670428 242.01151171 445.52191301 254.37914118 447 266.75 C447.11970154 267.75081604 447.23940308 268.75163208 447.36273193 269.78277588 C448.55471395 279.75879565 449.73790156 289.73578841 450.89794922 299.71557617 C453.30073273 320.36019856 455.84734023 340.98474999 458.46435547 361.60327148 C459.02231704 365.99954546 459.57727636 370.39619286 460.13147163 374.792943 C460.56777834 378.25149797 461.00574093 381.70984176 461.44417953 385.16812706 C461.64960012 386.79010069 461.85450692 388.41213949 462.05884171 390.03425026 C462.99676738 397.47397052 463.95435813 404.91139676 465.01513672 412.3347168 C465.15732635 413.33826706 465.29951599 414.34181732 465.4460144 415.3757782 C465.98943872 417.94997137 466.57408376 419.79501751 468 422 C470.37593491 423.40163067 472.63508827 424.60118924 475.125 425.75 C475.78371094 426.06582031 476.44242188 426.38164062 477.12109375 426.70703125 C478.74218853 427.48233745 480.37043584 428.24265686 482 429 C482 431.64 482 434.28 482 437 C430.52 437 379.04 437 326 437 C326 434.36 326 431.72 326 429 C326.80824219 428.70867187 327.61648438 428.41734375 328.44921875 428.1171875 C334.86894492 425.65461461 339.28520151 423.89243899 343 418 C346.00600569 408.98198293 343.67150708 397.75581975 342.79296875 388.47265625 C342.66607697 387.08823814 342.53971665 385.70377123 342.41384888 384.31925964 C342.14788819 381.40359827 341.87882042 378.48824904 341.60708618 375.57312012 C340.97082687 368.7454046 340.35035292 361.91624618 339.72881889 355.08717728 C339.52422358 352.84066263 339.31901169 350.59420483 339.11378479 348.3477478 C338.10844443 337.32062215 337.17551921 326.28916422 336.3125 315.25 C335.42524559 303.95496106 334.4053095 292.68061237 333.26928711 281.40771484 C332.3333567 271.91324091 331.51982549 262.4104038 330.734375 252.90234375 C330.67871243 252.22924856 330.62304985 251.55615337 330.56570053 250.86266136 C329.99686713 243.97884387 329.43246905 237.09468218 328.8762207 230.20983601 C328.61473609 226.98087806 328.34989873 223.7521938 328.0859375 220.5234375 C327.99125183 219.33519882 327.89656616 218.14696014 327.79901123 216.92271423 C327.7085553 215.82077225 327.61809937 214.71883026 327.52490234 213.58349609 C327.44734711 212.62220795 327.36979187 211.6609198 327.28988647 210.67050171 C327.00730021 208.0672512 326.55550344 205.5576236 326 203 C325.59499268 204.125271 325.18998535 205.25054199 324.77270508 206.40991211 C316.65766611 228.94582586 308.48098856 251.45732928 300.17431641 273.92337036 C292.10684429 295.74264605 284.15842172 317.60032307 276.3125 339.5 C269.22222841 359.29010438 262.07993085 379.0585513 254.80276489 398.78094482 C250.30534777 410.96995205 245.84247759 423.17074035 241.4296875 435.390625 C241.19296703 436.04590809 240.95624657 436.70119118 240.71235275 437.37633133 C238.6039572 443.21286752 236.49593352 449.04953541 234.39593506 454.88909912 C225.15714471 480.57455315 225.15714471 480.57455315 220 493 C217.75083128 489.62624692 216.38755269 486.14840462 214.9375 482.390625 C214.63468109 481.61406555 214.33186218 480.8375061 214.01986694 480.03741455 C213.00952672 477.44303855 212.0046662 474.84657804 211 472.25 C210.28093769 470.39902017 209.56169568 468.54811014 208.84228516 466.69726562 C202.89205529 451.37131717 197.01253063 436.01824744 191.14331055 420.66113281 C185.06566307 404.761453 178.94589632 388.87825096 172.8125 373 C170.94006488 368.15235892 169.06764764 363.30471094 167.1953125 358.45703125 C166.74575699 357.29311356 166.29620148 356.12919586 165.83302307 354.93000793 C161.94155792 344.85286531 158.06208267 334.77114359 154.1875 324.6875 C149.42833929 312.30249747 144.65485559 299.92311747 139.87011719 287.54797363 C133.41012736 270.83953503 126.95982654 254.12737837 120.52426147 237.40951538 C119.64215189 235.1183826 118.75969265 232.82738441 117.87686157 230.53652954 C116.63955011 227.32552354 115.40358792 224.11400128 114.16796875 220.90234375 C113.80512787 219.96141876 113.44228699 219.02049377 113.06845093 218.05105591 C110.63775735 211.7270914 108.29538284 205.37428984 106 199 C102.8841939 231.40727323 99.86266026 263.81509464 97.27154541 296.26925659 C95.97621367 312.47164189 94.5998645 328.663858 93.1328125 344.8515625 C93.05234869 345.74052341 92.97188488 346.62948433 92.88898277 347.54538345 C92.08899991 356.37950827 91.2841925 365.21316672 90.46795273 374.04580498 C90.16571839 377.32399291 89.86661595 380.60246207 89.56812668 383.88099289 C89.42834942 385.40729976 89.28708946 386.9334717 89.14421463 388.45949173 C86.88474239 402.92587505 86.88474239 402.92587505 90.4609375 416.4296875 C94.58189577 420.63432005 100.41263321 422.6031583 106 424 C106 426.97 106 429.94 106 433 C57.16 433 8.32 433 -42 433 C-42 430.03 -42 427.06 -42 424 C-41.26394531 423.76925781 -40.52789062 423.53851563 -39.76953125 423.30078125 C-31.77430563 420.7665373 -31.77430563 420.7665373 -26 415 C-23.85327995 406.689238 -23.18443541 397.92755861 -22.1953125 389.421875 C-22.02995405 388.01955947 -21.86435479 386.61727231 -21.6985321 385.2150116 C-21.25975442 381.49501496 -20.82578964 377.77447275 -20.39319229 374.0537529 C-20.12339837 371.73624214 -19.85223103 369.41889591 -19.58065796 367.10159302 C-17.3685368 348.2170865 -15.23933709 329.32870976 -13.36328125 310.4074707 C-12.14756533 298.18051639 -10.75016255 285.97889594 -9.31118774 273.77636719 C-7.47125763 258.17082988 -5.72060892 242.55662248 -4 226.9375 C-2.20393277 210.63568345 -0.34719569 194.3439406 1.625 178.0625 C3.23803826 164.74128269 4.71989305 151.41371342 6.0625 138.0625 C7.282717 125.92869964 8.54732274 113.80311487 9.9375 101.6875 C10.0174823 100.98801239 10.0974646 100.28852478 10.17987061 99.56784058 C11.080858 91.7050372 12.01388184 83.84666641 12.98497009 75.99220276 C13.44389982 72.27780851 13.89771417 68.56279338 14.35183716 64.84780884 C14.67447222 62.23067792 15.00580394 59.61475577 15.33764648 56.9987793 C16.42962014 48.22493088 17.31157187 39.44015627 17.89453125 30.6171875 C17.96693527 29.74361603 18.03933929 28.87004456 18.11393738 27.97000122 C18.42402962 22.40709928 17.77036869 19.40604775 14 15 C12.14537344 13.56234028 12.14537344 13.56234028 10.125 12.75 C9.43664062 12.440625 8.74828125 12.13125 8.0390625 11.8125 C5.39178743 10.7576471 2.7294544 9.81883632 0 9 C0 6.03 0 3.06 0 0 Z " fill="#322D7D" transform="translate(57,40)"/>
<path d="M0 0 C1.17487976 -0.00571014 2.34975952 -0.01142029 3.5602417 -0.01730347 C4.85070404 -0.01842133 6.14116638 -0.01953918 7.47073364 -0.02069092 C8.84235772 -0.02531981 10.21398051 -0.03034456 11.58560181 -0.03573608 C15.31291325 -0.0488544 19.04020668 -0.05530381 22.76753759 -0.05974674 C25.09614778 -0.06267809 27.42475304 -0.066783 29.75336075 -0.07125092 C37.03891695 -0.08492371 44.32446191 -0.0945917 51.61003006 -0.09845281 C60.02057608 -0.10293462 68.43095967 -0.12048906 76.84145629 -0.1494534 C83.34260608 -0.17106536 89.84371015 -0.18115681 96.34489548 -0.18249393 C100.22784616 -0.18354221 104.11064411 -0.18945503 107.99355698 -0.20731354 C111.64614602 -0.22378615 115.29846738 -0.22595382 118.95108032 -0.21717453 C120.92893416 -0.21603646 122.90677909 -0.22975969 124.88458252 -0.243927 C126.65536163 -0.23557327 126.65536163 -0.23557327 128.46191406 -0.22705078 C129.48581678 -0.22851734 130.50971951 -0.2299839 131.56464958 -0.2314949 C135.77863076 0.32961191 138.39410712 2.17660834 141.35794067 5.14044189 C141.61066362 7.81460334 141.72820625 10.34049431 141.73294067 13.01544189 C141.75743286 13.73602783 141.78192505 14.45661377 141.80715942 15.19903564 C141.82637839 18.67766852 141.65050021 20.73704483 139.58450317 23.58575439 C135.8765152 26.17484074 132.55542226 26.26146139 128.10794067 26.20294189 C127.21590942 26.19391846 126.32387817 26.18489502 125.40481567 26.17559814 C124.72934692 26.16399658 124.05387817 26.15239502 123.35794067 26.14044189 C124.15531493 32.9827394 124.95519088 39.82474148 125.75662231 46.66656494 C126.02767517 48.98290748 126.29820276 51.29931155 126.56814575 53.61578369 C128.07423135 66.53670797 129.61974666 79.44942238 131.33799744 92.34407043 C132.18140651 98.68580018 132.94500843 105.03417006 133.67044067 111.39044189 C133.86875488 113.11919556 133.86875488 113.11919556 134.07107544 114.88287354 C134.24594482 116.41995972 134.24594482 116.41995972 134.42434692 117.98809814 C135.63775873 128.60306283 136.86701498 139.21615846 138.10794067 149.82794189 C138.29821838 151.45525742 138.29821838 151.45525742 138.49234009 153.115448 C140.66128964 171.61753809 142.98908189 190.09686157 145.37097168 208.57260132 C147.46688036 224.84929041 149.41473728 241.1346678 151.21658325 257.4463501 C152.86251777 272.30325368 154.78598403 287.11161825 156.80883789 301.92150879 C158.67039054 315.57820982 160.30001096 329.23991718 161.72247314 342.94894409 C162.87838218 354.06871465 164.25500291 365.13226583 165.85403442 376.1987915 C166.82172857 382.98074642 167.67778569 389.76521482 168.42825317 396.57403564 C168.56127838 397.77588501 168.56127838 397.77588501 168.69699097 399.00201416 C169.13071593 402.94041567 169.55375989 406.87964133 169.96340942 410.82061768 C170.11816498 412.25146532 170.27310376 413.68229316 170.42825317 415.11309814 C170.55989868 416.37388184 170.69154419 417.63466553 170.82717896 418.93365479 C171.30487246 421.81981127 171.73316005 423.73306872 173.35794067 426.14044189 C176.1065612 427.6035023 176.1065612 427.6035023 179.29544067 428.70294189 C186.11387512 431.22982222 186.11387512 431.22982222 188.35794067 434.14044189 C190.18934798 439.63466381 190.02388051 445.17767184 188.17044067 450.64044189 C186.00892844 453.62183808 184.83754948 454.07092242 181.35794067 455.14044189 C178.27350616 455.3977108 178.27350616 455.3977108 174.75405884 455.40786743 C174.10402972 455.41239854 173.4540006 455.41692966 172.78427362 455.42159808 C170.61409483 455.43422153 168.44416766 455.4326231 166.2739563 455.43096924 C164.71484557 455.43695564 163.15573779 455.44376145 161.59663391 455.45132446 C157.36737442 455.46897683 153.13819589 455.47367942 148.90890312 455.47495604 C146.26636286 455.47637823 143.62384314 455.48064903 140.98130798 455.48595047 C131.7619496 455.50444574 122.54264903 455.5126214 113.32327271 455.51104736 C104.72932784 455.50984496 96.13563372 455.53096784 87.54175234 455.56253469 C80.16157998 455.5886775 72.78148966 455.59941555 65.40127134 455.59813654 C60.9940633 455.59762647 56.5870783 455.60333496 52.17991638 455.62449265 C48.03641771 455.64384243 43.89335567 455.64402212 39.74984169 455.62945938 C38.22967708 455.62736635 36.70948536 455.63210162 35.18936729 455.6441803 C33.11300476 455.65960993 31.03815234 455.65034252 28.96182251 455.63491821 C27.80040489 455.63600775 26.63898727 455.63709728 25.44237518 455.63821983 C21.68135971 455.03125265 20.02593741 453.81692486 17.35794067 451.14044189 C16.357757 448.13989088 16.16008458 445.96961248 16.10794067 442.82794189 C16.08215942 441.90368408 16.05637817 440.97942627 16.02981567 440.02716064 C16.44371372 436.38584331 17.30604978 434.18654796 19.35794067 431.14044189 C22.42434692 429.56622314 22.42434692 429.56622314 25.92044067 428.45294189 C31.00362535 426.99177793 31.00362535 426.99177793 34.35794067 423.14044189 C34.42820125 420.4378293 34.35995658 417.88116394 34.18215942 415.19122314 C34.13161911 414.32709305 34.0810788 413.46296295 34.02900696 412.57264709 C33.12826382 398.30955421 31.716455 384.07730232 30.402565 369.84767914 C29.68579746 362.0670821 28.98127664 354.28536036 28.27590942 346.50372314 C28.19611343 345.62475372 28.11631744 344.7457843 28.03410339 343.84017944 C26.84119458 330.68759509 25.69756866 317.53147052 24.59622192 304.37091064 C24.5269858 303.54447996 24.45774967 302.71804928 24.38641548 301.86657524 C23.72146017 293.92390719 23.06150953 285.9808423 22.40985012 278.03707218 C22.17176467 275.14176349 21.93120393 272.2466638 21.69013023 269.35160255 C21.52669765 267.37685257 21.36692468 265.40180077 21.20726013 263.42674255 C21.10954819 262.25444595 21.01183624 261.08214935 20.91116333 259.87432861 C20.82790802 258.85716766 20.74465271 257.84000671 20.65887451 256.79202271 C20.3970896 254.48538994 19.98997546 252.36974143 19.35794067 250.14044189 C18.90692993 251.38857666 18.90692993 251.38857666 18.44680786 252.66192627 C17.00245162 256.65546755 15.55593354 260.64821796 14.10794067 264.64044189 C13.84016815 265.37884308 13.57239563 266.11724426 13.29650879 266.87802124 C9.5721807 277.13992336 5.78250075 287.37458144 1.9230957 297.58639526 C-2.37232221 308.95219333 -6.53850632 320.34526319 -10.43771362 331.8550415 C-13.38855751 340.54334971 -16.56346695 349.14387301 -19.75408936 357.74624634 C-21.1024536 361.38178333 -22.44644456 365.01893404 -23.79049683 368.65606689 C-24.1787413 369.70645393 -24.1787413 369.70645393 -24.5748291 370.77806091 C-31.26673983 388.88703952 -37.87215558 407.02605798 -44.42868042 425.18447876 C-50.01535304 440.65662124 -55.64249504 456.11259835 -61.32418823 471.55010986 C-62.52329024 474.81687426 -63.71711849 478.08548395 -64.90811157 481.35520935 C-65.92663017 484.15137456 -66.94683246 486.94692432 -67.96707153 489.74246216 C-68.45271696 491.07462097 -68.93756038 492.40707248 -69.42153931 493.73983765 C-70.08794914 495.57467514 -70.75751298 497.40836617 -71.42721558 499.24200439 C-71.80756958 500.28695068 -72.18792358 501.33189697 -72.57980347 502.4085083 C-75.0417698 508.74024888 -75.0417698 508.74024888 -78.64205933 511.14044189 C-82.20179367 511.60475507 -84.03254498 511.50940891 -87.12643433 509.63653564 C-90.36005729 506.42801845 -91.56480011 503.04148643 -93.01705933 498.82794189 C-93.70253778 496.93918616 -94.39023707 495.05123568 -95.07955933 493.16387939 C-95.47272339 492.07687744 -95.86588745 490.98987549 -96.27096558 489.86993408 C-98.77663406 483.05430164 -101.41120898 476.28783817 -104.02804565 469.51428223 C-105.68447262 465.22447985 -107.33472574 460.93230298 -108.98580933 456.64044189 C-109.62380896 454.98288165 -110.26182915 453.32532932 -110.89987183 451.66778564 C-112.3464584 447.90916005 -113.79162115 444.14998981 -115.23580933 440.39044189 C-120.52073509 426.63379574 -125.82945497 412.88641736 -131.14205933 399.14044189 C-140.63649532 374.57282593 -150.08576795 349.98835265 -159.50183105 325.39059448 C-165.49194559 309.74290699 -171.49624117 294.10074718 -177.51974487 278.46588135 C-181.92217074 267.03482905 -186.28761505 255.58985263 -190.64205933 244.14044189 C-192.27435771 262.34131869 -193.90504467 280.5423387 -195.5328064 298.74362183 C-196.14419204 305.57953601 -196.75618133 312.4153936 -197.3712616 319.25097656 C-198.52519781 332.08499009 -199.63017559 344.92196704 -200.67330933 357.76544189 C-200.76365448 358.8773288 -200.85399963 359.9892157 -200.94708252 361.13479614 C-201.39642875 366.67303715 -201.84294544 372.21148739 -202.28512573 377.75030518 C-202.44836364 379.77878912 -202.61161186 381.80727223 -202.77487183 383.83575439 C-202.84766357 384.75815918 -202.92045532 385.68056396 -202.99545288 386.63092041 C-203.31588562 390.59739768 -203.67264565 394.54355759 -204.19015503 398.48956299 C-204.5423665 401.33503592 -204.76072523 404.00187855 -204.73971558 406.85919189 C-204.73649292 407.64552002 -204.73327026 408.43184814 -204.72994995 409.24200439 C-204.72157104 410.03348877 -204.71319214 410.82497314 -204.70455933 411.64044189 C-204.69779175 412.87407471 -204.69779175 412.87407471 -204.69088745 414.13262939 C-204.67924422 416.13526586 -204.66131488 418.13786416 -204.64205933 420.14044189 C-203.97819214 420.46657471 -203.31432495 420.79270752 -202.63034058 421.12872314 C-190.79812869 426.98437253 -190.79812869 426.98437253 -187.64205933 430.14044189 C-187.34127808 433.22247314 -187.34127808 433.22247314 -187.32955933 436.95294189 C-187.31280151 438.17626221 -187.2960437 439.39958252 -187.27877808 440.65997314 C-187.66511005 444.36128273 -188.35099619 446.23771319 -190.64205933 449.14044189 C-193.91518623 450.2314842 -196.33142597 450.27718107 -199.77764893 450.29434204 C-201.06191269 450.3029425 -202.34617645 450.31154297 -203.6693573 450.32040405 C-205.09564169 450.32483913 -206.5219265 450.3291375 -207.94821167 450.33331299 C-209.44791351 450.34121518 -210.94761345 450.3494842 -212.4473114 450.35809326 C-217.37418811 450.38429403 -222.30107326 450.39961629 -227.22799683 450.41387939 C-228.92394644 450.41923937 -230.61989599 450.42461688 -232.31584549 450.43001175 C-239.36907655 450.45163524 -246.42230533 450.4703731 -253.47556114 450.48163414 C-263.58605207 450.49788259 -273.69615929 450.5310879 -283.80650556 450.58803499 C-290.91486571 450.62671006 -298.0231231 450.64626377 -305.13158572 450.6515547 C-309.3779411 450.65521077 -313.62388704 450.66725905 -317.87012863 450.69965744 C-321.86426892 450.72969659 -325.85775111 450.73606517 -329.85198021 450.72427368 C-331.31733463 450.72405261 -332.78271924 450.73238548 -334.24796867 450.74992752 C-336.24935177 450.77258306 -338.25103274 450.76135092 -340.25250244 450.7484436 C-341.93215623 450.75340882 -341.93215623 450.75340882 -343.64574242 450.75847435 C-347.63474311 449.93568692 -349.13349148 448.28336608 -351.64205933 445.14044189 C-352.63268055 440.04898087 -352.42524311 435.23399483 -351.64205933 430.14044189 C-348.89222716 426.44987768 -347.35101536 425.68396308 -343.08737183 424.32794189 C-341.75319214 423.89481689 -341.75319214 423.89481689 -340.39205933 423.45294189 C-339.54127808 423.24282471 -338.69049683 423.03270752 -337.81393433 422.81622314 C-334.64595082 420.37186177 -334.59849288 417.83521403 -333.99655151 413.98492432 C-333.87956909 413.04624512 -333.76258667 412.10756592 -333.64205933 411.14044189 C-333.53281128 410.27072754 -333.42356323 409.40101318 -333.31100464 408.50494385 C-332.97353896 405.55265143 -332.6802998 402.59794206 -332.39205933 399.64044189 C-331.12428651 387.23668884 -329.66461541 374.86141524 -328.15859985 362.48455811 C-325.97809616 344.55718071 -323.89445299 326.62440352 -321.97613525 308.66711426 C-319.85993574 288.87682276 -317.58900365 269.10521376 -315.31403732 249.33269882 C-313.15203647 230.53875185 -311.02587752 211.74387196 -309.09588623 192.92437744 C-308.2286453 184.47881189 -307.28893579 176.05315392 -306.14205933 167.64044189 C-304.79302115 157.7376417 -303.74119444 147.81108804 -302.72174072 137.87017822 C-301.43656847 125.36826206 -300.05940008 112.8779429 -298.64205933 100.39044189 C-298.508546 99.21294373 -298.508546 99.21294373 -298.37233543 98.01165771 C-297.46541283 90.01415822 -296.55556935 82.01700371 -295.63850594 74.0206604 C-295.28959189 70.97325867 -294.94303077 67.92559207 -294.59693909 64.87786865 C-294.43490131 63.45595053 -294.27181838 62.03415102 -294.1075592 60.61248779 C-293.58918414 56.12464533 -293.10946053 51.63384459 -292.64205933 47.14044189 C-292.4874826 45.84090576 -292.33290588 44.54136963 -292.17364502 43.20245361 C-292.04551422 41.95351318 -291.91738342 40.70457275 -291.78536987 39.41778564 C-291.59964668 37.74897339 -291.59964668 37.74897339 -291.41017151 36.04644775 C-291.37970359 33.02982534 -291.37970359 33.02982534 -293.4785614 30.82061768 C-295.83170096 28.99316591 -297.89752688 28.05595772 -300.70455933 27.07794189 C-304.07109991 25.89838707 -306.38495699 24.96006195 -308.64205933 22.14044189 C-310.47135112 16.65256651 -310.61708175 10.41549421 -308.32955933 5.07794189 C-306.11701358 2.53761159 -304.48132909 1.22579311 -301.08483315 0.88037968 C-300.05431013 0.87572917 -299.02378712 0.87107866 -297.96203613 0.86628723 C-296.77874222 0.8563121 -295.5954483 0.84633698 -294.376297 0.83605957 C-293.07648392 0.8353949 -291.77667084 0.83473022 -290.43746948 0.83404541 C-289.05599011 0.82642465 -287.67451498 0.8179973 -286.29304504 0.80882263 C-282.53886631 0.78686241 -278.78476903 0.77807672 -275.03053331 0.77299619 C-272.68516478 0.76935442 -270.33981763 0.76311531 -267.99445724 0.7559948 C-259.8125286 0.73149505 -251.6306634 0.71844727 -243.44869995 0.71490479 C-235.82152584 0.71126902 -228.19475402 0.68137245 -220.56770289 0.6395002 C-214.0198337 0.60481262 -207.47209793 0.58935661 -200.92413747 0.58865875 C-197.01313643 0.5878654 -193.10254508 0.579101 -189.19163895 0.55066109 C-185.51263312 0.52450611 -181.83437739 0.52225997 -178.15532112 0.53831673 C-176.16312584 0.54099899 -174.17094534 0.51893002 -172.17887878 0.49612427 C-162.44224826 0.57608245 -162.44224826 0.57608245 -159.33770752 3.4806366 C-157.24063402 6.77012036 -157.03322713 8.75876009 -157.14205933 12.64044189 C-157.15237183 13.74387939 -157.16268433 14.84731689 -157.17330933 15.98419189 C-157.68629229 19.4382772 -158.53258872 21.37579454 -160.64205933 24.14044189 C-163.41808619 25.33016769 -165.61626004 26.14044189 -168.64205933 26.14044189 C-168.40833618 26.69651123 -168.17461304 27.25258057 -167.93380737 27.82550049 C-158.3630107 50.71465394 -149.68221288 73.94235081 -140.91012573 97.14581299 C-137.77299778 105.44131124 -134.61930155 113.73044269 -131.45455933 122.01544189 C-131.19152008 122.70460693 -130.92848083 123.39377197 -130.6574707 124.1038208 C-127.27582352 132.95835697 -123.81126113 141.77512035 -120.24923706 150.55865479 C-117.71139272 156.85788607 -115.44115512 163.22944218 -113.25924683 169.65997314 C-111.70987882 174.07953355 -109.94433448 178.40790553 -108.19221497 182.75022888 C-104.52494117 191.8717297 -101.06746138 201.07427182 -97.57955933 210.26544189 C-96.532985 213.01994212 -95.48604188 215.7743017 -94.43884277 218.52856445 C-93.76653689 220.29743032 -93.09479161 222.06650938 -92.42364502 223.83581543 C-90.97480775 227.65252615 -89.52012238 231.46632702 -88.03317261 235.26837158 C-87.57539429 236.44045166 -87.11761597 237.61253174 -86.64596558 238.82012939 C-86.25352661 239.81512451 -85.86108765 240.81011963 -85.45675659 241.83526611 C-84.64205933 244.14044189 -84.64205933 244.14044189 -84.64205933 246.14044189 C-83.98205933 246.14044189 -83.32205933 246.14044189 -82.64205933 246.14044189 C-82.55955933 245.37602783 -82.47705933 244.61161377 -82.39205933 243.82403564 C-81.35454786 238.72834131 -79.50290714 234.04953927 -77.64205933 229.20294189 C-77.24269165 228.14969727 -76.84332397 227.09645264 -76.43185425 226.0112915 C-73.32564084 217.84706544 -70.15273468 209.70817515 -66.9135437 201.59576416 C-64.44276577 195.35985227 -62.18354976 189.0636743 -59.96681213 182.73442078 C-57.32717008 175.20940924 -54.55585999 167.73618975 -51.76705933 160.26544189 C-51.20962705 158.76874947 -50.65233997 157.27200295 -50.09518433 155.77520752 C-48.90484106 152.57799211 -47.71369765 149.38107647 -46.52194214 146.18438721 C-43.90380012 139.16093219 -41.29075858 132.13557993 -38.67721558 125.1104126 C-37.31831991 121.45772749 -35.95891701 117.80523177 -34.59909058 114.15289307 C-31.42194376 105.61861507 -28.24823058 97.08311125 -25.08737183 88.54278564 C-20.14015034 75.1790935 -15.17822518 61.82225241 -10.07955933 48.51544189 C-9.68591187 47.48475586 -9.2922644 46.45406982 -8.88668823 45.39215088 C-6.86646637 40.14931958 -4.73816622 34.99651518 -2.36105347 29.90460205 C-1.51625435 28.14926873 -1.51625435 28.14926873 -1.64205933 26.14044189 C-2.90018433 25.91356689 -4.15830933 25.68669189 -5.45455933 25.45294189 C-8.4945358 24.90474942 -9.41741488 24.42225936 -11.37643433 21.96466064 C-12.85715136 18.660468 -13.07533911 16.25294825 -13.07955933 12.64044189 C-13.10856323 10.98528564 -13.10856323 10.98528564 -13.13815308 9.29669189 C-12.53878684 5.48340119 -11.35143673 3.84491988 -8.64205933 1.14044189 C-5.50113505 0.09346714 -3.29703525 0.00958567 0 0 Z M-301.64205933 9.14044189 C-301.64205933 12.11044189 -301.64205933 15.08044189 -301.64205933 18.14044189 C-300.90600464 18.37118408 -300.16994995 18.60192627 -299.41159058 18.83966064 C-292.13388423 21.27197201 -287.97413016 23.64233564 -283.64205933 30.14044189 C-283.47209167 32.10823059 -283.47209167 32.10823059 -283.58859253 34.36138916 C-283.62872971 35.20136948 -283.66886688 36.04134979 -283.71022034 36.90678406 C-283.76636002 37.81018021 -283.82249969 38.71357635 -283.88034058 39.64434814 C-283.93273392 40.58508682 -283.98512726 41.5258255 -284.03910828 42.49507141 C-284.54694956 50.89886329 -285.44260409 59.23175531 -286.51068115 67.58047485 C-287.08817542 72.10343382 -287.63627875 76.63001783 -288.18893433 81.15606689 C-288.36615273 82.59981941 -288.36615273 82.59981941 -288.54695129 84.07273865 C-289.98170787 95.81427362 -291.28110877 107.5706911 -292.57955933 119.32794189 C-292.70429626 120.45437103 -292.8290332 121.58080017 -292.95755005 122.74136353 C-294.38156728 135.60311187 -295.78841589 148.46667309 -297.18112183 161.33184814 C-297.68866322 166.01807548 -298.19642802 170.70427848 -298.70455933 175.39044189 C-298.82949768 176.54270264 -298.95443604 177.69496338 -299.0831604 178.88214111 C-300.89520667 195.56717433 -302.80692782 212.23733731 -304.81588745 228.89971924 C-307.09314462 247.793823 -309.2333306 266.70309174 -311.35818481 285.61486816 C-311.62798297 288.01520745 -311.8983602 290.41548074 -312.16891479 292.81573486 C-313.75484076 306.89448049 -315.31701937 320.97521267 -316.79049683 335.06622314 C-318.89381492 355.17244223 -321.04339955 375.27358309 -323.37966919 395.35424805 C-323.63614508 397.57128755 -323.88876416 399.78877691 -324.13735962 402.00671387 C-324.48467856 405.09565419 -324.8465907 408.18254693 -325.21237183 411.26934814 C-325.31225403 412.18280502 -325.41213623 413.0962619 -325.51504517 414.03739929 C-326.11701293 418.96374318 -326.98339092 422.83473543 -329.64205933 427.14044189 C-331.47409058 428.53106689 -331.47409058 428.53106689 -333.45455933 429.39044189 C-334.15194214 429.69981689 -334.84932495 430.00919189 -335.56784058 430.32794189 C-338.23052805 431.37095318 -340.90284859 432.31867867 -343.64205933 433.14044189 C-343.64205933 436.11044189 -343.64205933 439.08044189 -343.64205933 442.14044189 C-294.80205933 442.14044189 -245.96205933 442.14044189 -195.64205933 442.14044189 C-195.64205933 439.17044189 -195.64205933 436.20044189 -195.64205933 433.14044189 C-196.37811401 432.90969971 -197.1141687 432.67895752 -197.87252808 432.44122314 C-204.36803854 430.27033259 -209.12253858 428.3914608 -212.76063538 422.25314331 C-213.75004663 419.88160513 -213.82404161 418.38968997 -213.68234253 415.83721924 C-213.64022141 415.00268219 -213.59810028 414.16814514 -213.55470276 413.30831909 C-213.46839348 411.96838394 -213.46839348 411.96838394 -213.38034058 410.60137939 C-213.32743362 409.6665976 -213.27452667 408.7318158 -213.22001648 407.76870728 C-212.71103044 399.26013271 -211.94750716 390.78111179 -211.08642578 382.30187988 C-210.62539215 377.749385 -210.18521002 373.19485744 -209.74362183 368.64044189 C-209.65147903 367.69262848 -209.55933624 366.74481506 -209.46440125 365.76828003 C-208.46667612 355.4406082 -207.57659219 345.104379 -206.70455933 334.76544189 C-206.62394257 333.8121701 -206.54332581 332.85889832 -206.46026611 331.8767395 C-205.53810136 320.9598072 -204.63285151 310.04149716 -203.73403931 299.12261963 C-203.20457274 292.69096168 -202.67371945 286.25941887 -202.14205933 279.82794189 C-201.98492462 277.92598053 -201.98492462 277.92598053 -201.82461548 275.9855957 C-199.95039506 253.3518942 -197.88269816 230.74067689 -195.64205933 208.14044189 C-195.27145386 209.13745117 -194.90084839 210.13446045 -194.51901245 211.16168213 C-187.42536929 230.22906259 -180.2568258 249.26274142 -172.82955933 268.20294189 C-167.16177966 282.65822558 -161.55865716 297.13629829 -156.01705933 311.64044189 C-149.34020882 329.11099709 -142.63009977 346.5683914 -135.89205933 364.01544189 C-135.43242798 365.20567963 -134.97279663 366.39591736 -134.49923706 367.6222229 C-132.15500861 373.69242176 -129.81031324 379.76244011 -127.46530151 385.83233643 C-122.81406525 397.87183469 -118.16514827 409.91222824 -113.51705933 421.95294189 C-113.06776062 423.11677399 -112.61846191 424.28060608 -112.1555481 425.47970581 C-102.2946575 451.02441908 -92.46434845 476.58086339 -82.64205933 502.14044189 C-80.14330987 499.11356055 -78.78470392 496.27979242 -77.47579956 492.58892822 C-77.07293228 491.46411545 -76.670065 490.33930267 -76.25498962 489.18040466 C-75.82455856 487.95678726 -75.3941275 486.73316986 -74.95065308 485.47247314 C-74.48955765 484.17811416 -74.02778592 482.88399594 -73.56538391 481.59010315 C-72.57873128 478.82560695 -71.59617522 476.05970353 -70.61685181 473.29260254 C-68.27973176 466.69017139 -65.92106666 460.09542385 -63.56477356 453.49981689 C-62.76879993 451.27109686 -61.97363479 449.04208955 -61.17855835 446.81304932 C-56.70162983 434.26867908 -52.13136642 421.75992835 -47.51705933 409.26544189 C-40.99251506 391.58078909 -34.54742379 373.86860525 -28.14205933 356.14044189 C-21.33783493 337.31007459 -14.48494202 318.49889234 -7.56292725 299.71151733 C-0.11578346 279.49344951 7.22236251 259.23641908 14.54348755 238.97247314 C14.97581192 237.7761879 15.40813629 236.57990265 15.8535614 235.34736633 C16.66146063 233.11141052 17.46889687 230.87528734 18.27577209 228.63896179 C20.26746964 223.12546692 22.28570011 217.62419304 24.35794067 212.14044189 C26.37573458 225.18234842 27.36209941 238.30561016 28.41680908 251.45355225 C28.95720298 258.18325343 29.51053909 264.91188481 30.06497192 271.64044189 C30.12017691 272.311623 30.17538189 272.98280411 30.23225975 273.67432404 C31.21333516 285.5878498 32.28591379 297.4906707 33.42044067 309.39044189 C35.04959569 326.51508039 36.51546666 343.65024595 37.91970825 360.79473877 C38.67206167 369.96918117 39.43528503 379.14157991 40.27590942 388.30841064 C40.34741714 389.09305191 40.41892487 389.87769318 40.49259949 390.68611145 C40.8198282 394.27127329 41.15222048 397.85579692 41.49490356 401.43951416 C43.59601496 424.29482219 43.59601496 424.29482219 39.35794067 430.14044189 C35.19817343 434.4262627 29.86002742 436.13191314 24.35794067 438.14044189 C24.35794067 440.78044189 24.35794067 443.42044189 24.35794067 446.14044189 C75.83794067 446.14044189 127.31794067 446.14044189 180.35794067 446.14044189 C180.35794067 443.50044189 180.35794067 440.86044189 180.35794067 438.14044189 C179.38212036 437.71634033 178.40630005 437.29223877 177.40090942 436.85528564 C176.11519702 436.26404564 174.83007086 435.67152964 173.54544067 435.07794189 C172.90284302 434.80272705 172.26024536 434.52751221 171.59817505 434.24395752 C170.97620239 433.9506958 170.35422974 433.65743408 169.71340942 433.35528564 C169.14259644 433.09868164 168.57178345 432.84207764 167.9836731 432.57769775 C161.92163159 427.21844887 162.25604117 417.27044107 161.42044067 409.82794189 C161.25352457 408.4131948 161.08561714 406.99856436 160.91677856 405.58404541 C160.4746265 401.85885365 160.04499651 398.13232601 159.61831665 394.40533447 C159.19193692 390.69645048 158.7553679 386.98877247 158.31887817 383.28106689 C158.14755461 381.82509573 157.97624919 380.36912243 157.80496216 378.91314697 C157.72076019 378.19752594 157.63655823 377.48190491 157.54980469 376.74459839 C157.29469411 374.57158271 157.04112238 372.39839192 156.78787231 370.22515869 C155.86896469 362.35559855 154.90575202 354.49402548 153.85794067 346.64044189 C152.14462817 333.78011201 150.66392983 320.89271728 149.16114044 308.00653458 C147.61122926 294.72784316 146.01959483 281.45406439 144.43069458 268.17999268 C144.04775779 264.97992765 143.66597829 261.77972773 143.28518677 258.57940674 C141.22413407 241.26102887 139.09643799 223.95838249 136.75524902 206.67541504 C135.30348991 195.8951627 134.04365415 185.09828208 132.83547974 174.28839111 C130.84875768 156.54822895 128.71733249 138.83481482 126.35794067 121.14044189 C123.3695311 98.7257654 120.76419028 76.27122579 118.23286438 53.80075073 C117.77747789 49.76754826 117.31232266 45.73713181 116.79788208 41.71099854 C116.35377932 38.10666842 116.12199591 34.58327185 116.04544067 30.95294189 C116.00805786 29.78376221 115.97067505 28.61458252 115.93215942 27.40997314 C116.45356789 23.40613017 117.35912026 21.82750375 120.35794067 19.14044189 C123.33840942 18.46856689 123.33840942 18.46856689 126.54544067 18.39044189 C130.26569528 18.60397097 130.26569528 18.60397097 133.35794067 17.14044189 C133.35794067 14.50044189 133.35794067 11.86044189 133.35794067 9.14044189 C87.81794067 9.14044189 42.27794067 9.14044189 -4.64205933 9.14044189 C-4.64205933 11.78044189 -4.64205933 14.42044189 -4.64205933 17.14044189 C-3.93178589 17.34540283 -3.22151245 17.55036377 -2.48971558 17.76153564 C-1.57061401 18.03094971 -0.65151245 18.30036377 0.29544067 18.57794189 C1.21196411 18.84477783 2.12848755 19.11161377 3.07278442 19.38653564 C5.35794067 20.14044189 5.35794067 20.14044189 6.35794067 21.14044189 C7.5636292 27.30589459 6.19454708 31.97842902 3.38919067 37.48028564 C-1.31355628 47.09568005 -4.81729801 57.13535963 -8.42895508 67.19873047 C-10.52591273 73.03999535 -12.64655945 78.87267645 -14.76315308 84.70684814 C-15.18535629 85.87260376 -15.60755951 87.03835937 -16.04255676 88.23944092 C-19.52881997 97.85741064 -23.0934043 107.44378993 -26.70455933 117.01544189 C-33.43195343 134.8685349 -40.08080192 152.75041516 -46.71975327 170.63653564 C-47.57657714 172.94490758 -48.43347847 175.25325075 -49.29040527 177.56158447 C-51.52379348 183.57776625 -53.75712691 189.59396835 -55.99021912 195.61026001 C-60.61900668 208.08057385 -65.25335092 220.54881482 -69.89205933 233.01544189 C-70.20440521 233.85515533 -70.5167511 234.69486877 -70.83856201 235.56002808 C-71.43386951 237.16042304 -72.02932796 238.76076186 -72.62495422 240.36103821 C-73.17626622 241.84271222 -73.72704239 243.32458575 -74.27720642 244.8066864 C-75.6300254 248.44626596 -76.99836701 252.07902661 -78.3901062 255.70391846 C-78.67134338 256.44062775 -78.95258057 257.17733704 -79.24234009 257.93637085 C-79.77497527 259.3298048 -80.31156078 260.72173769 -80.85281372 262.11184692 C-81.93534772 264.95115066 -82.64205933 267.0714937 -82.64205933 270.14044189 C-83.30205933 270.14044189 -83.96205933 270.14044189 -84.64205933 270.14044189 C-84.75187134 269.46827637 -84.86168335 268.79611084 -84.974823 268.10357666 C-85.78209603 264.51855184 -87.01779379 261.15797538 -88.31784058 257.73028564 C-88.5945459 256.99201538 -88.87125122 256.25374512 -89.15634155 255.49310303 C-90.08495779 253.01980983 -91.01956713 250.54883121 -91.95455933 248.07794189 C-92.6228773 246.30397432 -93.29108742 244.52996611 -93.959198 242.75592041 C-101.50188769 222.76107263 -109.20047381 202.82567653 -116.88775635 182.8861084 C-121.13296937 171.87231039 -125.35915449 160.85126623 -129.57955933 149.82794189 C-129.94082916 148.88460999 -130.302099 147.94127808 -130.67431641 146.96936035 C-135.10594956 135.39692337 -139.52816616 123.82092131 -143.94284058 112.24200439 C-155.78845916 81.16567299 -155.78845916 81.16567299 -167.76705933 50.14044189 C-168.05351318 49.40250397 -168.33996704 48.66456604 -168.63510132 47.90426636 C-169.43017096 45.85739546 -170.22708856 43.81125644 -171.02487183 41.76544189 C-171.46202515 40.64395752 -171.89917847 39.52247314 -172.34957886 38.36700439 C-173.28392844 36.03448379 -174.26003812 33.75531689 -175.28610229 31.46466064 C-176.80508645 27.74077006 -177.03276518 25.12564159 -176.64205933 21.14044189 C-174.34382273 18.8422053 -173.6932505 18.84353806 -170.57955933 18.57794189 C-166.87469316 18.58130741 -166.87469316 18.58130741 -165.64205933 17.14044189 C-165.64205933 14.50044189 -165.64205933 11.86044189 -165.64205933 9.14044189 C-210.52205933 9.14044189 -255.40205933 9.14044189 -301.64205933 9.14044189 Z " fill="#73BCDC" transform="translate(358.6420593261719,30.85955810546875)"/>
</svg>
